<svg width="30" height="30" viewBox="0 0 30 30" fill="none" xmlns="http://www.w3.org/2000/svg">
<g clip-path="url(#clip0_838_1318)">
<path d="M18.75 15C21.5125 15 23.75 12.7625 23.75 10C23.75 7.2375 21.5125 5 18.75 5C15.9875 5 13.75 7.2375 13.75 10C13.75 12.7625 15.9875 15 18.75 15ZM7.5 12.5V8.75H5V12.5H1.25V15H5V18.75H7.5V15H11.25V12.5H7.5ZM18.75 17.5C15.4125 17.5 8.75 19.175 8.75 22.5V25H28.75V22.5C28.75 19.175 22.0875 17.5 18.75 17.5Z" fill="#35EB9A"/>
</g>
<defs>
<clipPath id="clip0_838_1318">
<rect width="30" height="30" fill="white"/>
</clipPath>
</defs>
</svg>
