<svg width="30" height="31" viewBox="0 0 30 31" fill="none" xmlns="http://www.w3.org/2000/svg">
<path d="M12.5876 3.52782L3.92509 10.4708C2.95009 11.2464 2.32509 12.8853 2.53759 14.1113L4.20009 24.0691C4.50009 25.8455 6.20008 27.2842 8.00008 27.2842H22.0001C23.7876 27.2842 25.5001 25.833 25.8001 24.0691L27.4626 14.1113C27.6626 12.8853 27.0376 11.2464 26.0751 10.4708L17.4126 3.54034C16.0751 2.46449 13.9126 2.46447 12.5876 3.52782Z" stroke="#35EB9A" stroke-width="1.5" stroke-linecap="round" stroke-linejoin="round"/>
<path d="M15 19.3904C16.7259 19.3904 18.125 17.9902 18.125 16.2629C18.125 14.5357 16.7259 13.1354 15 13.1354C13.2741 13.1354 11.875 14.5357 11.875 16.2629C11.875 17.9902 13.2741 19.3904 15 19.3904Z" stroke="#35EB9A" stroke-width="1.5" stroke-linecap="round" stroke-linejoin="round"/>
</svg>
