<svg width="30" height="30" viewBox="0 0 30 30" fill="none" xmlns="http://www.w3.org/2000/svg">
<g clip-path="url(#clip0_838_1322)">
<path d="M16.25 10C16.25 7.2375 14.0125 5 11.25 5C8.4875 5 6.25 7.2375 6.25 10C6.25 12.7625 8.4875 15 11.25 15C14.0125 15 16.25 12.7625 16.25 10ZM18.75 12.5V15H22.5V18.75H25V15H28.75V12.5H25V8.75H22.5V12.5H18.75ZM1.25 22.5V25H21.25V22.5C21.25 19.175 14.5875 17.5 11.25 17.5C7.9125 17.5 1.25 19.175 1.25 22.5Z" fill="#35EB9A"/>
</g>
<defs>
<clipPath id="clip0_838_1322">
<rect width="30" height="30" fill="white"/>
</clipPath>
</defs>
</svg>
