<svg width="25" height="25" viewBox="0 0 25 25" fill="none" xmlns="http://www.w3.org/2000/svg">
<path d="M12.5003 12.5C15.3768 12.5 17.7087 10.1681 17.7087 7.29165C17.7087 4.41516 15.3768 2.08331 12.5003 2.08331C9.62384 2.08331 7.29199 4.41516 7.29199 7.29165C7.29199 10.1681 9.62384 12.5 12.5003 12.5Z" stroke="#292D32" stroke-width="1.5" stroke-linecap="round" stroke-linejoin="round"/>
<path d="M20.0102 16.3959L16.3227 20.0834C16.1768 20.2292 16.0414 20.5 16.0102 20.6979L15.8122 22.1042C15.7393 22.6146 16.0935 22.9688 16.6039 22.8958L18.0101 22.6979C18.2081 22.6667 18.4893 22.5313 18.6248 22.3854L22.3122 18.698C22.9477 18.0625 23.2497 17.3229 22.3122 16.3854C21.3852 15.4583 20.6456 15.7604 20.0102 16.3959Z" stroke="#292D32" stroke-width="1.5" stroke-miterlimit="10" stroke-linecap="round" stroke-linejoin="round"/>
<path d="M19.4785 16.9271C19.791 18.0521 20.666 18.927 21.791 19.2395" stroke="#292D32" stroke-width="1.5" stroke-miterlimit="10" stroke-linecap="round" stroke-linejoin="round"/>
<path d="M3.55176 22.9167C3.55176 18.8854 7.5622 15.625 12.4997 15.625C13.583 15.625 14.6247 15.7812 15.5934 16.0729" stroke="#292D32" stroke-width="1.5" stroke-linecap="round" stroke-linejoin="round"/>
</svg>
