<svg width="26" height="26" viewBox="0 0 26 26" fill="none" xmlns="http://www.w3.org/2000/svg">
<path d="M9.20866 20.5834H8.66699C4.33366 20.5834 2.16699 19.5001 2.16699 14.0834V8.66675C2.16699 4.33341 4.33366 2.16675 8.66699 2.16675H17.3337C21.667 2.16675 23.8337 4.33341 23.8337 8.66675V14.0834C23.8337 18.4167 21.667 20.5834 17.3337 20.5834H16.792C16.4562 20.5834 16.1312 20.7459 15.9253 21.0167L14.3003 23.1834C13.5853 24.1367 12.4153 24.1367 11.7003 23.1834L10.0753 21.0167C9.90199 20.7784 9.50116 20.5834 9.20866 20.5834Z" stroke="white" stroke-width="1.5" stroke-miterlimit="10" stroke-linecap="round" stroke-linejoin="round"/>
<path d="M17.3297 11.9167H17.3394" stroke="white" stroke-width="2" stroke-linecap="round" stroke-linejoin="round"/>
<path d="M12.9947 11.9167H13.0044" stroke="white" stroke-width="2" stroke-linecap="round" stroke-linejoin="round"/>
<path d="M8.66072 11.9167H8.67045" stroke="white" stroke-width="2" stroke-linecap="round" stroke-linejoin="round"/>
</svg>
