<svg width="25" height="25" viewBox="0 0 25 25" fill="none" xmlns="http://www.w3.org/2000/svg">
<path d="M12.5003 12.5C15.3768 12.5 17.7087 10.1681 17.7087 7.29165C17.7087 4.41516 15.3768 2.08331 12.5003 2.08331C9.62384 2.08331 7.29199 4.41516 7.29199 7.29165C7.29199 10.1681 9.62384 12.5 12.5003 12.5Z" stroke="#292D32" stroke-width="1.5" stroke-linecap="round" stroke-linejoin="round"/>
<path d="M3.55176 22.9167C3.55176 18.8854 7.56217 15.625 12.4997 15.625C13.4997 15.625 14.4684 15.7604 15.3747 16.0104" stroke="#292D32" stroke-width="1.5" stroke-linecap="round" stroke-linejoin="round"/>
<path d="M22.9163 18.75C22.9163 19.0833 22.8747 19.4062 22.7913 19.7187C22.6976 20.1354 22.5309 20.5416 22.3122 20.8958C21.5934 22.1041 20.2705 22.9166 18.7497 22.9166C17.6768 22.9166 16.708 22.5104 15.9788 21.8437C15.6663 21.5729 15.3955 21.25 15.1872 20.8958C14.8017 20.2708 14.583 19.5312 14.583 18.75C14.583 17.625 15.0309 16.5938 15.7601 15.8438C16.5205 15.0625 17.583 14.5833 18.7497 14.5833C19.9788 14.5833 21.0934 15.1146 21.8434 15.9687C22.5101 16.7083 22.9163 17.6875 22.9163 18.75Z" stroke="#292D32" stroke-width="1.5" stroke-miterlimit="10" stroke-linecap="round" stroke-linejoin="round"/>
<path d="M20.3024 18.7292H17.1982" stroke="#292D32" stroke-width="1.5" stroke-miterlimit="10" stroke-linecap="round" stroke-linejoin="round"/>
<path d="M18.75 17.2084V20.3229" stroke="#292D32" stroke-width="1.5" stroke-miterlimit="10" stroke-linecap="round" stroke-linejoin="round"/>
</svg>
